Coordinates
version=1
nRows=17
nColumns=40
inDegrees=yes

Units are S.I. units (second, meters, Newtons, ...)
If the header above contains a line with 'inDegrees', this indicates whether rotational values are in degrees (yes) or radians (no).

endheader
time	pelvis_tilt	pelvis_list	pelvis_rotation	pelvis_tx	pelvis_ty	pelvis_tz	hip_flexion_r	hip_adduction_r	hip_rotation_r	knee_angle_r	knee_angle_r_beta	ankle_angle_r	subtalar_angle_r	mtp_angle_r	hip_flexion_l	hip_adduction_l	hip_rotation_l	knee_angle_l	knee_angle_l_beta	ankle_angle_l	subtalar_angle_l	mtp_angle_l	lumbar_extension	lumbar_bending	lumbar_rotation	arm_flex_r	arm_add_r	arm_rot_r	elbow_flex_r	pro_sup_r	wrist_flex_r	wrist_dev_r	arm_flex_l	arm_add_l	arm_rot_l	elbow_flex_l	pro_sup_l	wrist_flex_l	wrist_dev_l
      3.85000000	    -39.10753457	     -0.78556092	      7.23458187	     -0.39226672	      0.73024527	     -0.74047321	     86.89146096	     -5.17896563	     -8.81563879	     84.82468711	      1.48047008	     24.51139352	      0.00000000	      0.00000000	     36.95143403	     -8.09726904	      7.17784554	     87.00458915	      1.51851655	     -9.53086070	      0.00000000	      0.00000000	      2.82978824	      4.08329111	     -8.05727847	     89.96857558	     -2.39479859	      7.05380618	     55.82038062	     67.20987494	      0.00000000	      0.00000000	     89.95278279	     -6.56164440	      5.26190029	     52.32467887	     73.31182941	      0.00000000	      0.00000000
      3.85500000	    -39.13699433	     -0.82592278	      7.20898504	     -0.39211054	      0.72944759	     -0.74040930	     86.85214146	     -5.05020532	     -8.80499836	     84.73908967	      1.47897612	     25.18666563	      0.00000000	      0.00000000	     36.93109400	     -8.19912929	      7.12496795	     87.11585229	      1.52045845	     -9.51085118	      0.00000000	      0.00000000	      2.82800751	      4.13074572	     -8.02267096	     89.96870523	     -2.39269253	      6.71456606	     55.81769274	     71.01853629	      0.00000000	      0.00000000	     89.95295957	     -6.55762636	      4.80753934	     52.30682704	     77.80270099	      0.00000000	      0.00000000
      3.86000000	    -39.23046225	     -0.79711456	      7.24945284	     -0.39199051	      0.72840344	     -0.74050326	     87.04232427	     -5.04856660	     -8.69858744	     84.93337616	      1.48236706	     25.32063994	      0.00000000	      0.00000000	     36.97111083	     -8.14680918	      7.12001981	     87.25622524	      1.52290842	     -9.41145915	      0.00000000	      0.00000000	      2.92926103	      4.05734572	     -8.06719952	     89.96874062	     -2.39865222	      7.04922670	     55.98768786	     67.48607020	      0.00000000	      0.00000000	     89.95324289	     -6.50545397	      5.12835789	     52.44957297	     73.57935930	      0.00000000	      0.00000000
      3.86500000	    -39.22131186	     -0.83072809	      7.33222856	     -0.39182020	      0.72745500	     -0.74058254	     87.11947028	     -5.09821863	     -8.72993755	     85.13735726	      1.48592720	     25.41747482	      0.00000000	      0.00000000	     36.95267458	     -8.15792009	      7.19888461	     87.41181031	      1.52562390	     -9.48875735	      0.00000000	      0.00000000	      2.92271024	      4.07379184	     -8.18802324	     89.96886341	     -2.34706691	      6.50285180	     55.89838925	     71.64562998	      0.00000000	      0.00000000	     89.95337036	     -6.55474645	      4.75812197	     52.44433966	     77.67594133	      0.00000000	      0.00000000
      3.87000000	    -39.20621221	     -0.75037706	      7.37638204	     -0.39150041	      0.72643965	     -0.74069831	     87.23038348	     -5.10631470	     -8.56528722	     85.42054699	      1.49086979	     25.41000246	      0.00000000	      0.00000000	     36.82766005	     -8.09920728	      7.13982837	     87.54164263	      1.52788990	     -9.24737145	      0.00000000	      0.00000000	      2.90483866	      3.97311517	     -8.22418605	     89.96903247	     -2.30246359	      6.65795090	     55.92987420	     69.81101510	      0.00000000	      0.00000000	     89.95370222	     -6.46925736	      4.78370157	     52.48791594	     75.47275600	      0.00000000	      0.00000000
      3.87500000	    -39.37398766	     -0.87604709	      7.46790818	     -0.39142330	      0.72551756	     -0.74078102	     87.42053423	     -5.11283028	     -8.63474805	     85.48209296	      1.49194397	     25.75913109	      0.00000000	      0.00000000	     37.01252703	     -8.16392715	      7.27333446	     87.65197900	      1.52981563	     -9.43071753	      0.00000000	      0.00000000	      3.07599980	      4.06375834	     -8.29883468	     89.96909271	     -2.39316400	      6.99946401	     56.13706949	     66.66533341	      0.00000000	      0.00000000	     89.95377194	     -6.48974180	      5.19963649	     52.68863174	     71.95372695	      0.00000000	      0.00000000
      3.88000000	    -39.35716925	     -0.90291667	      7.43037166	     -0.39137152	      0.72467368	     -0.74068317	     87.48382971	     -4.99603585	     -8.60949517	     85.63829057	      1.49467014	     25.88998958	      0.00000000	      0.00000000	     36.96241156	     -8.24979438	      7.25342517	     87.78834438	      1.53219565	     -9.58718829	      0.00000000	      0.00000000	      3.02894288	      4.05383667	     -8.30977292	     89.96922798	     -2.40063274	      7.28230350	     56.36503278	     63.87156387	      0.00000000	      0.00000000	     89.95396571	     -6.49060452	      5.50649054	     52.93642096	     68.71760299	      0.00000000	      0.00000000
      3.88500000	    -39.33183612	     -0.87151966	      7.48918244	     -0.39115550	      0.72370627	     -0.74085287	     87.55443034	     -5.01032564	     -8.50583949	     85.85261504	      1.49841080	     25.99378425	      0.00000000	      0.00000000	     36.88006100	     -8.17879397	      7.28709829	     87.94419561	      1.53491577	     -9.58819358	      0.00000000	      0.00000000	      3.00080270	      4.04557003	     -8.38538340	     89.96932586	     -2.30258883	      6.50764586	     56.17106591	     71.19317551	      0.00000000	      0.00000000	     89.95414090	     -6.53525937	      4.60241636	     52.67780937	     77.69230182	      0.00000000	      0.00000000
      3.89000000	    -39.42713585	     -0.91025698	      7.64280984	     -0.39089473	      0.72268075	     -0.74099216	     87.71604057	     -5.06981957	     -8.43476083	     86.04388962	      1.50174918	     26.21600748	      0.00000000	      0.00000000	     36.94870635	     -8.14456819	      7.42874710	     88.04072568	      1.53660054	     -9.64043437	      0.00000000	      0.00000000	      3.11622699	      4.04082740	     -8.49779474	     89.96942479	     -2.34701184	      6.70754154	     56.25221767	     69.54734972	      0.00000000	      0.00000000	     89.95434830	     -6.45072167	      4.76887860	     52.75799740	     75.64105565	      0.00000000	      0.00000000
      3.89500000	    -39.41921981	     -0.95449887	      7.69791921	     -0.39074005	      0.72180002	     -0.74100585	     87.79814675	     -5.05584794	     -8.43470897	     86.21625017	      1.50475743	     26.26528287	      0.00000000	      0.00000000	     36.90607649	     -8.17780719	      7.49323150	     88.15581318	      1.53860919	     -9.67710670	      0.00000000	      0.00000000	      3.09510264	      4.04863865	     -8.56234162	     89.96952910	     -2.36368927	      6.47323517	     56.17482013	     71.07648252	      0.00000000	      0.00000000	     89.95449110	     -6.42831697	      4.58928274	     52.76418905	     77.30192135	      0.00000000	      0.00000000
      3.90000000	    -39.39675039	     -1.00796179	      7.65343601	     -0.39057763	      0.72096191	     -0.74097643	     87.85096268	     -4.88717305	     -8.36376907	     86.35550446	      1.50718788	     26.43930744	      0.00000000	      0.00000000	     36.83261346	     -8.30481796	      7.47799129	     88.25537150	      1.54034682	     -9.74061024	      0.00000000	      0.00000000	      3.05794355	      4.10442350	     -8.52972271	     89.96961989	     -2.38682640	      7.07661381	     56.52626152	     64.85140777	      0.00000000	      0.00000000	     89.95473016	     -6.44034586	      5.26213319	     53.04098084	     69.42472854	      0.00000000	      0.00000000
      3.90500000	    -39.46241622	     -0.95949396	      7.73826624	     -0.39053604	      0.71995243	     -0.74104780	     88.02684391	     -4.87582998	     -8.18298120	     86.55954311	      1.51074903	     26.61028340	      0.00000000	      0.00000000	     36.85617008	     -8.20992372	      7.52381709	     88.36811871	      1.54231463	     -9.77789001	      0.00000000	      0.00000000	      3.10934745	      4.01328313	     -8.65556612	     89.96968525	     -2.36635209	      7.32025048	     56.70635399	     61.92915438	      0.00000000	      0.00000000	     89.95495763	     -6.48161124	      5.52017371	     53.23693155	     66.19483980	      0.00000000	      0.00000000
      3.91000000	    -39.44552719	     -0.97449886	      7.80752641	     -0.39022779	      0.71904383	     -0.74105631	     88.09371380	     -4.85480687	     -8.11385066	     86.76934920	      1.51441083	     26.69777397	      0.00000000	      0.00000000	     36.77506140	     -8.21362842	      7.59804349	     88.46167469	      1.54394749	     -9.77133043	      0.00000000	      0.00000000	      3.08808523	      4.01512230	     -8.72429033	     89.96979298	     -2.30621015	      6.45071191	     56.37290662	     70.96885247	      0.00000000	      0.00000000	     89.95507517	     -6.42605404	      4.41288349	     52.89311982	     77.55537630	      0.00000000	      0.00000000
      3.91500000	    -39.50055086	     -1.03592352	      7.87591110	     -0.39004438	      0.71815934	     -0.74112715	     88.21824940	     -4.81722755	     -8.06486277	     86.94436271	      1.51746540	     26.89902977	      0.00000000	      0.00000000	     36.78373558	     -8.17963354	      7.75913635	     88.55658783	      1.54560403	     -9.80894210	      0.00000000	      0.00000000	      3.14086729	      4.05293184	     -8.78937642	     89.96984727	     -2.37729467	      6.82112893	     56.57731195	     67.06849010	      0.00000000	      0.00000000	     89.95518727	     -6.42213517	      4.84571197	     53.05945475	     72.81634385	      0.00000000	      0.00000000
      3.92000000	    -39.49819681	     -1.07699362	      7.98879821	     -0.38997704	      0.71732833	     -0.74119495	     88.30292898	     -4.81254226	     -7.98804262	     87.11134368	      1.52037976	     27.04145737	      0.00000000	      0.00000000	     36.76829907	     -8.17643983	      7.87698678	     88.65727018	      1.54736127	     -9.88855102	      0.00000000	      0.00000000	      3.12606129	      4.06871205	     -8.92865280	     89.96989233	     -2.33485358	      7.14212668	     56.85483223	     63.47075125	      0.00000000	      0.00000000	     89.95538852	     -6.43249909	      5.18054873	     53.25639127	     68.63009000	      0.00000000	      0.00000000
      3.92500000	    -39.44071442	     -1.11220130	      7.99768285	     -0.38973192	      0.71658467	     -0.74111376	     88.32186466	     -4.69846358	     -7.89743635	     87.30201681	      1.52370764	     27.12232170	      0.00000000	      0.00000000	     36.67077611	     -8.27801492	      7.88156719	     88.72899202	      1.54861305	    -10.05791236	      0.00000000	      0.00000000	      3.04633886	      4.11126802	     -8.96976774	     89.97001446	     -2.22234824	      6.35600557	     56.60991134	     70.75725310	      0.00000000	      0.00000000	     89.95554510	     -6.43382257	      4.29940994	     53.02013908	     77.40525312	      0.00000000	      0.00000000
      3.93000000	    -39.53883584	     -1.06575119	      8.08683120	     -0.38959639	      0.71560888	     -0.74117168	     88.50960466	     -4.68696645	     -7.71465685	     87.49201281	      1.52702369	     27.34640961	      0.00000000	      0.00000000	     36.69643043	     -8.12387826	      7.99507274	     88.79694465	      1.54979905	     -9.99567083	      0.00000000	      0.00000000	      3.13428309	      4.00641435	     -9.03384187	     89.97006954	     -2.27621210	      6.66561961	     56.72118986	     66.99562532	      0.00000000	      0.00000000	     89.95568078	     -6.39230264	      4.68247267	     53.19532863	     72.94871739	      0.00000000	      0.00000000
